<svg xmlns="http://www.w3.org/2000/svg" viewBox="0 0 601.4 115.2">
  <g fill="#312783">
    <path d="M32 32v11.2h25.6V72H32v11.2h33.6v30.4H0V1.6h65.6V32H32zM16 98.2h34.2l12.2-11.8H28.8L16 98.2V57.6h26.4l11.7-11.2H28.8L16 57.4V17.6h33.9L62.4 4.8H3.2v105.6L16 98.2zM170.4 1.6v70.9c0 6-1.1 11.5-3.4 16.7-2.2 5.2-5.3 9.7-9.2 13.5-3.9 3.8-8.5 6.9-13.7 9.1-5.2 2.2-10.8 3.4-16.6 3.4-6 0-11.5-1.1-16.7-3.4-5.2-2.2-9.7-5.3-13.5-9.1-3.8-3.8-6.9-8.3-9.1-13.5-2.2-5.2-3.4-10.7-3.4-16.7V1.6h32v70.9c0 3.1 1 5.7 3 7.7s4.6 3 7.7 3 5.7-1 7.8-3c2.1-2 3.1-4.6 3.1-7.7V1.6h32zM89.9 84.8c1.3 3.8 3 7.4 5.3 10.6l9.9-9c-2.9-4.4-4.3-9.3-4.3-14.7V17.6l12.8-12.8H88v67.7c0 4.4.6 8.5 1.9 12.3zm24.7 10.3c3.8 2.2 8.1 3.3 12.9 3.3 3.7 0 7.2-.7 10.5-2.1s6.1-3.3 8.6-5.7c2.5-2.4 4.4-5.2 5.8-8.5s2.1-6.7 2.1-10.5v-54l12.8-12.8h-25.6v67.7c0 3.9-1.4 7.3-4.1 9.9-2.7 2.7-6.1 4-10 4-3 0-5.6-.8-7.9-2.3-2.3-1.5-4-3.5-5-6l-9.3 8.3c2.3 3.6 5.5 6.5 9.2 8.7zM265 63.7c-3 5.8-7.1 10.6-12.2 14.4l18.4 35.5h-34.7c-2.1-3.9-4.2-7.7-6.1-11.2-1.6-3.1-3.3-6.1-5-9.1-1.7-3-3-5.3-3.8-7v27.4h-32V1.6h36.6c5.9 0 11.4 1.1 16.6 3.4 5.2 2.3 9.8 5.4 13.8 9.3s7.1 8.4 9.4 13.6c2.3 5.2 3.5 10.7 3.5 16.6.1 7-1.4 13.4-4.5 19.2zm-25.6-11.1c-.9 1.9-2 3.4-3.4 4.5-1.3 1.1-2.8 1.9-4.4 2.3s-3.1.6-4.5.6h-8.8l-12.2 12.8H232l-8.6 10.6 14.9 27 9.4-9.8-15.5-27.8c2.9-.6 5.7-1.7 8.3-3.3 2.7-1.5 5-3.5 7-5.8s3.5-5 4.7-8 1.8-6.3 1.8-10.1c0-3.9-.7-7.5-2.2-10.6-1.4-3.1-3.4-6.2-5.8-9.3l8.5-9c-3.7-3.7-8-6.7-12.9-8.8-4.9-2.1-10-3.2-15.4-3.2h-33.4v105.6l12.8-11V17.6h18.7c5.2 0 9.7.8 13.4 2.5 3.7 1.7 6.4 3.5 8.2 5.7l-9 8.8c1.2 1.2 2.1 2.7 2.8 4.5.7 1.8 1 3.9 1 6.4.1 2.8-.4 5.2-1.3 7.1zm-2.8-12.8c-.7-1.5-1.5-2.7-2.6-3.7-1-1-2.1-1.6-3.4-2-1.2-.4-2.4-.6-3.4-.6h-5.6v23.2h5.6c1.1 0 2.2-.2 3.4-.5 1.2-.3 2.3-.9 3.4-1.8 1-.9 1.9-2.1 2.6-3.5.7-1.4 1-3.3 1-5.5s-.3-4.1-1-5.6zM287 35.1c3-7 7.1-13.1 12.3-18.2 5.2-5.2 11.3-9.3 18.2-12.3S332 0 340 0s15.5 1.5 22.5 4.6c7 3 13.1 7.1 18.2 12.3 5.2 5.2 9.3 11.3 12.3 18.2s4.6 14.5 4.6 22.5-1.5 15.5-4.6 22.5-7.1 13.1-12.3 18.2c-5.2 5.2-11.3 9.3-18.2 12.3-7 3-14.5 4.6-22.5 4.6s-15.5-1.5-22.5-4.6-13.1-7.1-18.2-12.3C294.1 93.1 290 87 287 80.1s-4.6-14.5-4.6-22.5 1.5-15.5 4.6-22.5zm3 44c2.9 6.7 6.9 12.5 11.9 17.5l9.4-8.6c3.7 3.4 8.1 6.1 13 8.2 5 2 10.2 3 15.6 3 5.8 0 11.2-1.1 16.2-3.3 5.1-2.2 9.5-5.1 13.2-8.9s6.7-8.1 8.9-13.2 3.3-10.5 3.3-16.2c0-5.9-1.1-11.4-3.4-16.5-2.2-5.1-5.3-9.5-9.1-13.3.6-.7 1.4-1.5 2.2-2.4l2.4-2.6c.8-.9 1.6-1.7 2.3-2.4.7-.7 1.3-1.4 1.8-1.9-4.9-4.8-10.6-8.6-17-11.3-6.5-2.7-13.4-4.1-20.7-4.1-7.6 0-14.6 1.4-21.2 4.2-6.6 2.8-12.3 6.7-17.3 11.7-5 5-8.9 10.7-11.7 17.4-2.8 6.6-4.2 13.7-4.2 21.1 0 7.8 1.5 15 4.4 21.6zM356.1 19c5 2 9.3 4.9 13 8.6l-8.5 9.4c2.5 2.7 4.4 5.8 5.9 9.3s2.2 7.2 2.2 11c0 3.9-.7 7.7-2.2 11.2s-3.5 6.6-6.2 9.2-5.7 4.7-9.2 6.2c-3.5 1.5-7.3 2.2-11.2 2.2-3.7 0-7.2-.6-10.4-1.9-3.2-1.3-6.1-3-8.6-5.3l-1.8 1.8c-.8.7-1.7 1.5-2.6 2.4-1 .9-1.9 1.7-2.8 2.6-.9.9-1.7 1.5-2.3 2.1-4.2-3.7-7.4-8.2-9.6-13.4-2.2-5.2-3.4-10.8-3.4-16.9 0-5.8 1.1-11.2 3.3-16.2 2.2-5.1 5.1-9.5 8.9-13.2 3.7-3.7 8.1-6.7 13.2-8.9s10.5-3.3 16.2-3.3c5.8.1 11.1 1.1 16.1 3.1zm-39.7 48.4c1.3 3.1 3.2 5.8 5.5 8.2s5.1 4.2 8.2 5.5c3.1 1.3 6.4 2 9.9 2s6.8-.7 9.9-2c3.1-1.3 5.8-3.2 8.2-5.5s4.2-5.1 5.5-8.2c1.3-3.1 2-6.4 2-9.9s-.7-6.8-2-9.9-3.2-5.8-5.5-8.2-5.1-4.2-8.2-5.5c-3.1-1.3-6.4-2-9.9-2s-6.8.7-9.9 2c-3.1 1.3-5.8 3.2-8.2 5.5s-4.2 5.1-5.5 8.2-2 6.4-2 9.9.7 6.8 2 9.9zM490 64.1c-2.4 5.5-5.7 10-9.9 13.5s-9.3 6.1-15.1 7.8c-5.9 1.7-12.3 2.6-19.4 2.6v25.6h-32V1.6h36.6c5.9 0 11.4 1.1 16.6 3.4 5.2 2.3 9.8 5.4 13.8 9.3 3.9 3.9 7.1 8.4 9.4 13.6 2.3 5.2 3.5 10.7 3.5 16.6.1 7.6-1.1 14.1-3.5 19.6zm-28.6 6.5c3.7-1.4 6.8-3.4 9.3-5.9 2.5-2.5 4.3-5.4 5.5-8.6 1.2-3.3 1.8-6.7 1.8-10.5 0-3.9-.7-7.5-2.2-10.6-1.4-3.1-3.4-6.2-5.8-9.3l8.5-9c-3.7-3.7-8-6.7-12.9-8.8s-10-3.2-15.4-3.2h-33.4v105.6l12.8-10.2V17.6h18.7c5.2 0 9.7.8 13.4 2.5 3.7 1.7 6.4 3.5 8.2 5.7l-9 8.8c1.2 1.2 2.1 2.7 2.8 4.5.7 1.8 1 3.9 1 6.4 0 2.9-.5 5.3-1.4 7.1s-2 3.4-3.4 4.5c-1.3 1.1-2.8 1.9-4.4 2.3-1.6.4-3.1.6-4.5.6h-8.8L430 72.8h18.1c5.2 0 9.6-.7 13.3-2.2zm-.8-30.8c-.7-1.5-1.5-2.7-2.6-3.7-1-1-2.1-1.6-3.4-2-1.2-.4-2.4-.6-3.4-.6h-5.6v23.2h5.6c1.1 0 2.2-.2 3.4-.5 1.2-.3 2.3-.9 3.4-1.8 1-.9 1.9-2.1 2.6-3.5.7-1.4 1-3.3 1-5.5s-.3-4.1-1-5.6zM559.5 1.6l41.9 112h-32.3l-3.7-12.2H531l-3.4 12.2h-32.5L537 1.6h22.5zm8.3 97l3.7 11.8 8.6-11-31.8-84 8.8-10.6h-17.8l-39.5 105.4 16.6-11.4 4-10.1h55l-7.6 9.9zm-47.2-10l27.7-73.3v26.4L561 78.4h-25.3l-15.1 10.2zm35.9-13.4l-8.2-23.5-8.2 23.5h16.4z"/>
  </g>
</svg>
